<?xml version="1.0" encoding="utf-8"?>
<svg version="1.1" xmlns:xlink="http://www.w3.org/1999/xlink" width="315px" height="199px" xmlns="http://www.w3.org/2000/svg">
  <g transform="matrix(1 0 0 1 -172 -936 )">
    <path d="M 172 936  L 487 936  L 487 1135  L 172 1135  L 172 936  " fill-rule="nonzero" fill="#cccccc" stroke="none" />
    <path d="M 186 950  L 473 950  L 473 1121  L 186 1121  L 186 950  " fill-rule="nonzero" fill="#ffffff" stroke="none" />
    <path d="M 350.725 995.7  C 342.367 995.7  335.8 989.133  335.8 980.775  C 335.8 972.417  342.367 965.85  350.725 965.85  C 359.083 965.85  365.65 972.417  365.65 980.775  C 365.65 989.133  359.083 995.7  350.725 995.7  " fill-rule="nonzero" fill="#cccccc" stroke="none" />
    <path d="M 191 1116  L 191 1027.45  L 260.25 987.2  L 357.2 1054.97333333333  L 412.6 1011.35  L 468 1054.97333333333  L 468 1116  L 191 1116  " fill-rule="nonzero" fill="#169bd5" stroke="none" />
  </g>
</svg>