<?xml version="1.0" encoding="utf-8"?>
<svg version="1.1" xmlns:xlink="http://www.w3.org/1999/xlink" width="178px" height="141px" xmlns="http://www.w3.org/2000/svg">
  <g transform="matrix(1 0 0 1 -176 -857 )">
    <path d="M 176 857  L 354 857  L 354 998  L 176 998  L 176 857  " fill-rule="nonzero" fill="#cccccc" stroke="none" />
    <path d="M 186 867  L 344 867  L 344 988  L 186 988  L 186 867  " fill-rule="nonzero" fill="#ffffff" stroke="none" />
    <path d="M 279.135 899.3  C 273.213 899.3  268.56 894.647  268.56 888.725  C 268.56 882.803  273.213 878.15  279.135 878.15  C 285.057 878.15  289.71 882.803  289.71 888.725  C 289.71 894.647  285.057 899.3  279.135 899.3  " fill-rule="nonzero" fill="#cccccc" stroke="none" />
    <path d="M 190 985  L 190 922.3  L 227.75 893.8  L 280.6 930.81797752809  L 310.8 910.9  L 341 930.81797752809  L 341 985  L 190 985  " fill-rule="nonzero" fill="#169bd5" stroke="none" />
  </g>
</svg>